# xmcd
#
# Track frame offsets:
#	150
#	19575
#	36898
#	54225
#	80267
#	106772
#	126942
#	148700
#	166023
#	184042
#
# Disc length: 2726 seconds
#
# Revision: 1
# Processed by: cddbd v1.5.2PL0 Copyright (c) Steve Scherf et al.
# Submitted via: audiograbber 1.83.01
#
DISCID=730aa40a
DTITLE=Ken Stacey - I Will Still Be Me Ken Stacey
DYEAR=2009
DGENRE=Country
TTITLE0=So Damn Beatiful
TTITLE1=Only Love
TTITLE2=She Is
TTITLE3=I Will Still Be Me
TTITLE4=Innocent Poison
TTITLE5=Rain
TTITLE6=Enemy Within
TTITLE7=Shine
TTITLE8=The Long Road
TTITLE9=Necessity
EXTD=
EXTT0=
EXTT1=
EXTT2=
EXTT3=
EXTT4=
EXTT5=
EXTT6=
EXTT7=
EXTT8=
EXTT9=
PLAYORDER=
